<mxfile>
    <diagram id="BmeMJBhX48OI2Xd4dD_5" name="Page-1">
        <mxGraphModel dx="1314" dy="632" grid="1" gridSize="10" guides="1" tooltips="1" connect="1" arrows="1" fold="1" page="1" pageScale="1" pageWidth="1200" pageHeight="1300" math="0" shadow="0">
            <root>
                <mxCell id="0"/>
                <mxCell id="1" parent="0"/>
                <mxCell id="3" value="" style="edgeStyle=orthogonalEdgeStyle;rounded=0;jumpSize=6;orthogonalLoop=1;jettySize=auto;html=1;strokeColor=#FFFFFF;" edge="1" parent="1" source="MqBiw-XnccrKViI1XK44-3">
                    <mxGeometry relative="1" as="geometry">
                        <mxPoint x="562" y="240" as="targetPoint"/>
                    </mxGeometry>
                </mxCell>
                <mxCell id="MqBiw-XnccrKViI1XK44-3" value="Start" style="ellipse;whiteSpace=wrap;html=1;strokeColor=#FFFFFF;fillColor=#00CC00;" parent="1" vertex="1">
                    <mxGeometry x="501.75" y="70" width="120" height="80" as="geometry"/>
                </mxCell>
                <mxCell id="p5cfNKYse7fmXfm88VF4-36" value="" style="edgeStyle=orthogonalEdgeStyle;rounded=0;orthogonalLoop=1;jettySize=auto;html=1;" parent="1" source="MqBiw-XnccrKViI1XK44-6" target="p5cfNKYse7fmXfm88VF4-35" edge="1">
                    <mxGeometry relative="1" as="geometry"/>
                </mxCell>
                <mxCell id="MqBiw-XnccrKViI1XK44-6" value="" style="whiteSpace=wrap;html=1;rounded=0;" parent="1" vertex="1">
                    <mxGeometry x="261.75" y="240" width="640" height="790" as="geometry"/>
                </mxCell>
                <mxCell id="MqBiw-XnccrKViI1XK44-7" value="Initialize Game" style="text;html=1;strokeColor=none;fillColor=none;align=center;verticalAlign=middle;whiteSpace=wrap;rounded=0;" parent="1" vertex="1">
                    <mxGeometry x="521.75" y="250" width="95" height="20" as="geometry"/>
                </mxCell>
                <mxCell id="p5cfNKYse7fmXfm88VF4-3" value="" style="edgeStyle=orthogonalEdgeStyle;rounded=0;orthogonalLoop=1;jettySize=auto;html=1;" parent="1" source="MqBiw-XnccrKViI1XK44-8" target="p5cfNKYse7fmXfm88VF4-1" edge="1">
                    <mxGeometry relative="1" as="geometry"/>
                </mxCell>
                <mxCell id="MqBiw-XnccrKViI1XK44-8" value="&lt;div&gt;Get User&lt;/div&gt;&lt;div&gt;Name&lt;br&gt;&lt;/div&gt;" style="whiteSpace=wrap;html=1;aspect=fixed;rounded=0;" parent="1" vertex="1">
                    <mxGeometry x="521.75" y="290" width="90" height="90" as="geometry"/>
                </mxCell>
                <mxCell id="p5cfNKYse7fmXfm88VF4-7" style="edgeStyle=orthogonalEdgeStyle;rounded=0;orthogonalLoop=1;jettySize=auto;html=1;exitX=0;exitY=0.5;exitDx=0;exitDy=0;entryX=0;entryY=0.5;entryDx=0;entryDy=0;" parent="1" source="p5cfNKYse7fmXfm88VF4-1" target="MqBiw-XnccrKViI1XK44-8" edge="1">
                    <mxGeometry relative="1" as="geometry"/>
                </mxCell>
                <mxCell id="p5cfNKYse7fmXfm88VF4-8" value="No" style="edgeLabel;html=1;align=center;verticalAlign=middle;resizable=0;points=[];" parent="p5cfNKYse7fmXfm88VF4-7" vertex="1" connectable="0">
                    <mxGeometry x="-0.1782" y="2" relative="1" as="geometry">
                        <mxPoint as="offset"/>
                    </mxGeometry>
                </mxCell>
                <mxCell id="p5cfNKYse7fmXfm88VF4-10" value="Yes" style="edgeStyle=orthogonalEdgeStyle;rounded=0;orthogonalLoop=1;jettySize=auto;html=1;" parent="1" source="p5cfNKYse7fmXfm88VF4-1" target="p5cfNKYse7fmXfm88VF4-9" edge="1">
                    <mxGeometry relative="1" as="geometry"/>
                </mxCell>
                <mxCell id="p5cfNKYse7fmXfm88VF4-1" value="Valid?" style="rhombus;whiteSpace=wrap;html=1;rounded=0;" parent="1" vertex="1">
                    <mxGeometry x="524.25" y="410" width="85" height="40" as="geometry"/>
                </mxCell>
                <mxCell id="p5cfNKYse7fmXfm88VF4-9" value="&lt;div&gt;Get Player&lt;/div&gt;&lt;div&gt;Token&lt;br&gt;&lt;/div&gt;" style="whiteSpace=wrap;html=1;aspect=fixed;rounded=0;" parent="1" vertex="1">
                    <mxGeometry x="521.75" y="510" width="90" height="90" as="geometry"/>
                </mxCell>
                <mxCell id="p5cfNKYse7fmXfm88VF4-19" value="" style="edgeStyle=orthogonalEdgeStyle;rounded=0;orthogonalLoop=1;jettySize=auto;html=1;" parent="1" source="p5cfNKYse7fmXfm88VF4-11" target="p5cfNKYse7fmXfm88VF4-18" edge="1">
                    <mxGeometry relative="1" as="geometry"/>
                </mxCell>
                <mxCell id="p5cfNKYse7fmXfm88VF4-20" value="Yes" style="edgeLabel;html=1;align=center;verticalAlign=middle;resizable=0;points=[];" parent="p5cfNKYse7fmXfm88VF4-19" vertex="1" connectable="0">
                    <mxGeometry x="-0.2889" y="2" relative="1" as="geometry">
                        <mxPoint as="offset"/>
                    </mxGeometry>
                </mxCell>
                <mxCell id="p5cfNKYse7fmXfm88VF4-11" value="Valid?" style="rhombus;whiteSpace=wrap;html=1;rounded=0;" parent="1" vertex="1">
                    <mxGeometry x="526.75" y="660" width="85" height="40" as="geometry"/>
                </mxCell>
                <mxCell id="p5cfNKYse7fmXfm88VF4-13" value="Yes" style="edgeStyle=orthogonalEdgeStyle;rounded=0;orthogonalLoop=1;jettySize=auto;html=1;" parent="1" edge="1">
                    <mxGeometry relative="1" as="geometry">
                        <mxPoint x="568.75" y="600" as="sourcePoint"/>
                        <mxPoint x="568.75" y="660" as="targetPoint"/>
                    </mxGeometry>
                </mxCell>
                <mxCell id="p5cfNKYse7fmXfm88VF4-16" style="edgeStyle=orthogonalEdgeStyle;rounded=0;orthogonalLoop=1;jettySize=auto;html=1;exitX=0;exitY=0.5;exitDx=0;exitDy=0;entryX=0;entryY=0.5;entryDx=0;entryDy=0;" parent="1" source="p5cfNKYse7fmXfm88VF4-11" target="p5cfNKYse7fmXfm88VF4-9" edge="1">
                    <mxGeometry relative="1" as="geometry">
                        <mxPoint x="501.75" y="685" as="sourcePoint"/>
                        <mxPoint x="499.25" y="590" as="targetPoint"/>
                    </mxGeometry>
                </mxCell>
                <mxCell id="p5cfNKYse7fmXfm88VF4-17" value="No" style="edgeLabel;html=1;align=center;verticalAlign=middle;resizable=0;points=[];" parent="p5cfNKYse7fmXfm88VF4-16" vertex="1" connectable="0">
                    <mxGeometry x="-0.1782" y="2" relative="1" as="geometry">
                        <mxPoint as="offset"/>
                    </mxGeometry>
                </mxCell>
                <mxCell id="p5cfNKYse7fmXfm88VF4-24" value="" style="edgeStyle=orthogonalEdgeStyle;rounded=0;orthogonalLoop=1;jettySize=auto;html=1;entryX=0.75;entryY=0;entryDx=0;entryDy=0;" parent="1" source="p5cfNKYse7fmXfm88VF4-18" target="p5cfNKYse7fmXfm88VF4-22" edge="1">
                    <mxGeometry relative="1" as="geometry">
                        <mxPoint x="757.75" y="795" as="targetPoint"/>
                    </mxGeometry>
                </mxCell>
                <mxCell id="p5cfNKYse7fmXfm88VF4-25" value="Input" style="edgeLabel;html=1;align=center;verticalAlign=middle;resizable=0;points=[];" parent="p5cfNKYse7fmXfm88VF4-24" vertex="1" connectable="0">
                    <mxGeometry x="-0.2558" y="2" relative="1" as="geometry">
                        <mxPoint as="offset"/>
                    </mxGeometry>
                </mxCell>
                <mxCell id="p5cfNKYse7fmXfm88VF4-18" value="&lt;div&gt;Assign&lt;/div&gt;&lt;div&gt;User token&lt;br&gt;&lt;/div&gt;" style="shape=parallelogram;perimeter=parallelogramPerimeter;whiteSpace=wrap;html=1;fixedSize=1;rounded=0;" parent="1" vertex="1">
                    <mxGeometry x="702.25" y="655" width="110" height="50" as="geometry"/>
                </mxCell>
                <mxCell id="p5cfNKYse7fmXfm88VF4-31" value="" style="edgeStyle=orthogonalEdgeStyle;rounded=0;orthogonalLoop=1;jettySize=auto;html=1;" parent="1" source="p5cfNKYse7fmXfm88VF4-22" target="p5cfNKYse7fmXfm88VF4-30" edge="1">
                    <mxGeometry relative="1" as="geometry"/>
                </mxCell>
                <mxCell id="p5cfNKYse7fmXfm88VF4-22" value="&lt;div&gt;Assign&lt;/div&gt;&lt;div&gt;Com token&lt;br&gt;&lt;/div&gt;" style="shape=parallelogram;perimeter=parallelogramPerimeter;whiteSpace=wrap;html=1;fixedSize=1;rounded=0;" parent="1" vertex="1">
                    <mxGeometry x="681.75" y="770" width="110" height="50" as="geometry"/>
                </mxCell>
                <mxCell id="p5cfNKYse7fmXfm88VF4-34" value="" style="edgeStyle=orthogonalEdgeStyle;rounded=0;orthogonalLoop=1;jettySize=auto;html=1;" parent="1" source="p5cfNKYse7fmXfm88VF4-30" target="p5cfNKYse7fmXfm88VF4-32" edge="1">
                    <mxGeometry relative="1" as="geometry"/>
                </mxCell>
                <mxCell id="p5cfNKYse7fmXfm88VF4-30" value="Coin Toss" style="whiteSpace=wrap;html=1;aspect=fixed;rounded=0;" parent="1" vertex="1">
                    <mxGeometry x="524.25" y="870" width="90" height="90" as="geometry"/>
                </mxCell>
                <mxCell id="p5cfNKYse7fmXfm88VF4-116" value="" style="edgeStyle=orthogonalEdgeStyle;rounded=0;jumpSize=6;orthogonalLoop=1;jettySize=auto;html=1;strokeColor=#FFFFFF;" parent="1" source="p5cfNKYse7fmXfm88VF4-32" target="p5cfNKYse7fmXfm88VF4-115" edge="1">
                    <mxGeometry relative="1" as="geometry"/>
                </mxCell>
                <mxCell id="p5cfNKYse7fmXfm88VF4-32" value="&lt;div&gt;Set Current&lt;/div&gt;&lt;div&gt;Player&lt;br&gt;&lt;/div&gt;" style="shape=parallelogram;perimeter=parallelogramPerimeter;whiteSpace=wrap;html=1;fixedSize=1;rounded=0;" parent="1" vertex="1">
                    <mxGeometry x="691.75" y="890" width="110" height="50" as="geometry"/>
                </mxCell>
                <mxCell id="p5cfNKYse7fmXfm88VF4-136" value="" style="edgeStyle=orthogonalEdgeStyle;rounded=0;jumpSize=6;orthogonalLoop=1;jettySize=auto;html=1;strokeColor=#FFFFFF;" parent="1" source="p5cfNKYse7fmXfm88VF4-35" edge="1">
                    <mxGeometry relative="1" as="geometry">
                        <mxPoint x="582" y="1220" as="targetPoint"/>
                    </mxGeometry>
                </mxCell>
                <mxCell id="p5cfNKYse7fmXfm88VF4-35" value="" style="ellipse;whiteSpace=wrap;html=1;aspect=fixed;" parent="1" vertex="1">
                    <mxGeometry x="556.75" y="1090" width="50" height="50" as="geometry"/>
                </mxCell>
                <mxCell id="p5cfNKYse7fmXfm88VF4-124" value="" style="edgeStyle=orthogonalEdgeStyle;rounded=0;jumpSize=6;orthogonalLoop=1;jettySize=auto;html=1;strokeColor=#FFFFFF;" parent="1" source="p5cfNKYse7fmXfm88VF4-37" target="p5cfNKYse7fmXfm88VF4-120" edge="1">
                    <mxGeometry relative="1" as="geometry"/>
                </mxCell>
                <mxCell id="p5cfNKYse7fmXfm88VF4-37" value="" style="whiteSpace=wrap;html=1;rounded=0;strokeColor=#FFFFFF;" parent="1" vertex="1">
                    <mxGeometry x="120" y="1220" width="980" height="930" as="geometry"/>
                </mxCell>
                <mxCell id="p5cfNKYse7fmXfm88VF4-39" value="Gameplay Loop" style="text;html=1;strokeColor=none;fillColor=none;align=center;verticalAlign=middle;whiteSpace=wrap;rounded=0;" parent="1" vertex="1">
                    <mxGeometry x="540" y="1230" width="95" height="20" as="geometry"/>
                </mxCell>
                <mxCell id="p5cfNKYse7fmXfm88VF4-58" style="edgeStyle=orthogonalEdgeStyle;rounded=0;orthogonalLoop=1;jettySize=auto;html=1;exitX=0.5;exitY=1;exitDx=0;exitDy=0;" parent="1" source="p5cfNKYse7fmXfm88VF4-41" target="p5cfNKYse7fmXfm88VF4-45" edge="1">
                    <mxGeometry relative="1" as="geometry"/>
                </mxCell>
                <mxCell id="p5cfNKYse7fmXfm88VF4-41" value="Display Board" style="whiteSpace=wrap;html=1;aspect=fixed;rounded=0;" parent="1" vertex="1">
                    <mxGeometry x="450" y="1280" width="90" height="90" as="geometry"/>
                </mxCell>
                <mxCell id="p5cfNKYse7fmXfm88VF4-43" value="" style="edgeStyle=orthogonalEdgeStyle;rounded=0;orthogonalLoop=1;jettySize=auto;html=1;" parent="1" source="p5cfNKYse7fmXfm88VF4-42" target="p5cfNKYse7fmXfm88VF4-41" edge="1">
                    <mxGeometry relative="1" as="geometry"/>
                </mxCell>
                <mxCell id="p5cfNKYse7fmXfm88VF4-93" style="edgeStyle=orthogonalEdgeStyle;rounded=0;jumpSize=6;orthogonalLoop=1;jettySize=auto;html=1;exitX=0;exitY=0.5;exitDx=0;exitDy=0;entryX=0;entryY=0.5;entryDx=0;entryDy=0;strokeColor=#FFFFFF;" parent="1" source="p5cfNKYse7fmXfm88VF4-42" target="p5cfNKYse7fmXfm88VF4-78" edge="1">
                    <mxGeometry relative="1" as="geometry">
                        <Array as="points">
                            <mxPoint x="190" y="1325"/>
                            <mxPoint x="190" y="2025"/>
                        </Array>
                    </mxGeometry>
                </mxCell>
                <mxCell id="2" value="Input" style="edgeLabel;html=1;align=center;verticalAlign=middle;resizable=0;points=[];" vertex="1" connectable="0" parent="p5cfNKYse7fmXfm88VF4-93">
                    <mxGeometry x="0.6875" y="-2" relative="1" as="geometry">
                        <mxPoint x="-1" as="offset"/>
                    </mxGeometry>
                </mxCell>
                <mxCell id="p5cfNKYse7fmXfm88VF4-42" value="Board" style="shape=parallelogram;perimeter=parallelogramPerimeter;whiteSpace=wrap;html=1;fixedSize=1;rounded=0;" parent="1" vertex="1">
                    <mxGeometry x="230" y="1300" width="110" height="50" as="geometry"/>
                </mxCell>
                <mxCell id="p5cfNKYse7fmXfm88VF4-69" value="" style="edgeStyle=orthogonalEdgeStyle;rounded=0;orthogonalLoop=1;jettySize=auto;html=1;" parent="1" source="p5cfNKYse7fmXfm88VF4-45" target="p5cfNKYse7fmXfm88VF4-50" edge="1">
                    <mxGeometry relative="1" as="geometry"/>
                </mxCell>
                <mxCell id="p5cfNKYse7fmXfm88VF4-45" value="&lt;div&gt;Set current&lt;/div&gt;&lt;div&gt;player piece&lt;br&gt;&lt;/div&gt;" style="whiteSpace=wrap;html=1;aspect=fixed;rounded=0;strokeColor=#0066CC;" parent="1" vertex="1">
                    <mxGeometry x="450" y="1430" width="90" height="90" as="geometry"/>
                </mxCell>
                <mxCell id="p5cfNKYse7fmXfm88VF4-48" style="edgeStyle=orthogonalEdgeStyle;rounded=0;orthogonalLoop=1;jettySize=auto;html=1;exitX=0.5;exitY=0;exitDx=0;exitDy=0;entryX=0;entryY=0.5;entryDx=0;entryDy=0;" parent="1" source="p5cfNKYse7fmXfm88VF4-46" target="p5cfNKYse7fmXfm88VF4-45" edge="1">
                    <mxGeometry relative="1" as="geometry"/>
                </mxCell>
                <mxCell id="p5cfNKYse7fmXfm88VF4-49" value="Input" style="edgeLabel;html=1;align=center;verticalAlign=middle;resizable=0;points=[];" parent="p5cfNKYse7fmXfm88VF4-48" vertex="1" connectable="0">
                    <mxGeometry x="0.2348" y="1" relative="1" as="geometry">
                        <mxPoint as="offset"/>
                    </mxGeometry>
                </mxCell>
                <mxCell id="p5cfNKYse7fmXfm88VF4-46" value="Current Player" style="shape=parallelogram;perimeter=parallelogramPerimeter;whiteSpace=wrap;html=1;fixedSize=1;rounded=0;strokeColor=#0066CC;" parent="1" vertex="1">
                    <mxGeometry x="240" y="1550" width="110" height="50" as="geometry"/>
                </mxCell>
                <mxCell id="p5cfNKYse7fmXfm88VF4-56" style="edgeStyle=orthogonalEdgeStyle;rounded=0;orthogonalLoop=1;jettySize=auto;html=1;exitX=0.5;exitY=0;exitDx=0;exitDy=0;entryX=0.5;entryY=0;entryDx=0;entryDy=0;" parent="1" source="p5cfNKYse7fmXfm88VF4-50" target="p5cfNKYse7fmXfm88VF4-42" edge="1">
                    <mxGeometry relative="1" as="geometry">
                        <Array as="points">
                            <mxPoint x="840" y="1270"/>
                            <mxPoint x="285" y="1270"/>
                        </Array>
                    </mxGeometry>
                </mxCell>
                <mxCell id="p5cfNKYse7fmXfm88VF4-57" value="Modify" style="edgeLabel;html=1;align=center;verticalAlign=middle;resizable=0;points=[];" parent="p5cfNKYse7fmXfm88VF4-56" vertex="1" connectable="0">
                    <mxGeometry x="-0.1444" y="-1" relative="1" as="geometry">
                        <mxPoint as="offset"/>
                    </mxGeometry>
                </mxCell>
                <mxCell id="4" style="edgeStyle=orthogonalEdgeStyle;rounded=0;jumpSize=6;orthogonalLoop=1;jettySize=auto;html=1;exitX=0.5;exitY=1;exitDx=0;exitDy=0;entryX=1;entryY=0.5;entryDx=0;entryDy=0;strokeColor=#FFFFFF;" edge="1" parent="1" source="p5cfNKYse7fmXfm88VF4-50" target="p5cfNKYse7fmXfm88VF4-70">
                    <mxGeometry relative="1" as="geometry"/>
                </mxCell>
                <mxCell id="p5cfNKYse7fmXfm88VF4-50" value="" style="rounded=1;whiteSpace=wrap;html=1;" parent="1" vertex="1">
                    <mxGeometry x="630" y="1470" width="420" height="310" as="geometry"/>
                </mxCell>
                <mxCell id="p5cfNKYse7fmXfm88VF4-51" value="Set piece" style="text;html=1;strokeColor=none;fillColor=none;align=center;verticalAlign=middle;whiteSpace=wrap;rounded=0;" parent="1" vertex="1">
                    <mxGeometry x="752.5" y="1480" width="95" height="20" as="geometry"/>
                </mxCell>
                <mxCell id="p5cfNKYse7fmXfm88VF4-100" value="" style="edgeStyle=orthogonalEdgeStyle;rounded=0;jumpSize=6;orthogonalLoop=1;jettySize=auto;html=1;strokeColor=#FFFFFF;" parent="1" source="p5cfNKYse7fmXfm88VF4-52" target="p5cfNKYse7fmXfm88VF4-53" edge="1">
                    <mxGeometry relative="1" as="geometry"/>
                </mxCell>
                <mxCell id="p5cfNKYse7fmXfm88VF4-52" value="Set user piece" style="whiteSpace=wrap;html=1;aspect=fixed;rounded=0;" parent="1" vertex="1">
                    <mxGeometry x="763.75" y="1620" width="72.5" height="72.5" as="geometry"/>
                </mxCell>
                <mxCell id="p5cfNKYse7fmXfm88VF4-54" style="edgeStyle=orthogonalEdgeStyle;rounded=0;orthogonalLoop=1;jettySize=auto;html=1;exitX=0;exitY=0.5;exitDx=0;exitDy=0;entryX=0;entryY=0.5;entryDx=0;entryDy=0;" parent="1" source="p5cfNKYse7fmXfm88VF4-53" target="p5cfNKYse7fmXfm88VF4-52" edge="1">
                    <mxGeometry relative="1" as="geometry"/>
                </mxCell>
                <mxCell id="p5cfNKYse7fmXfm88VF4-55" value="No" style="edgeLabel;html=1;align=center;verticalAlign=middle;resizable=0;points=[];" parent="p5cfNKYse7fmXfm88VF4-54" vertex="1" connectable="0">
                    <mxGeometry x="-0.2497" y="-1" relative="1" as="geometry">
                        <mxPoint x="1" as="offset"/>
                    </mxGeometry>
                </mxCell>
                <mxCell id="p5cfNKYse7fmXfm88VF4-53" value="Valid?" style="rhombus;whiteSpace=wrap;html=1;rounded=0;" parent="1" vertex="1">
                    <mxGeometry x="757.5" y="1720" width="85" height="40" as="geometry"/>
                </mxCell>
                <mxCell id="p5cfNKYse7fmXfm88VF4-59" value="Set Com piece" style="whiteSpace=wrap;html=1;aspect=fixed;rounded=0;strokeColor=#0066CC;" parent="1" vertex="1">
                    <mxGeometry x="920" y="1508.75" width="72.5" height="72.5" as="geometry"/>
                </mxCell>
                <mxCell id="p5cfNKYse7fmXfm88VF4-64" value="" style="edgeStyle=orthogonalEdgeStyle;rounded=0;orthogonalLoop=1;jettySize=auto;html=1;" parent="1" source="p5cfNKYse7fmXfm88VF4-61" target="p5cfNKYse7fmXfm88VF4-52" edge="1">
                    <mxGeometry relative="1" as="geometry">
                        <Array as="points">
                            <mxPoint x="801" y="1590"/>
                            <mxPoint x="801" y="1590"/>
                        </Array>
                    </mxGeometry>
                </mxCell>
                <mxCell id="p5cfNKYse7fmXfm88VF4-65" value="Yes" style="edgeLabel;html=1;align=center;verticalAlign=middle;resizable=0;points=[];" parent="p5cfNKYse7fmXfm88VF4-64" vertex="1" connectable="0">
                    <mxGeometry x="0.1134" relative="1" as="geometry">
                        <mxPoint as="offset"/>
                    </mxGeometry>
                </mxCell>
                <mxCell id="p5cfNKYse7fmXfm88VF4-67" value="" style="edgeStyle=orthogonalEdgeStyle;rounded=0;orthogonalLoop=1;jettySize=auto;html=1;" parent="1" source="p5cfNKYse7fmXfm88VF4-61" target="p5cfNKYse7fmXfm88VF4-59" edge="1">
                    <mxGeometry relative="1" as="geometry">
                        <Array as="points">
                            <mxPoint x="880" y="1545"/>
                            <mxPoint x="880" y="1545"/>
                        </Array>
                    </mxGeometry>
                </mxCell>
                <mxCell id="p5cfNKYse7fmXfm88VF4-68" value="No" style="edgeLabel;html=1;align=center;verticalAlign=middle;resizable=0;points=[];" parent="p5cfNKYse7fmXfm88VF4-67" vertex="1" connectable="0">
                    <mxGeometry x="0.1173" y="1" relative="1" as="geometry">
                        <mxPoint as="offset"/>
                    </mxGeometry>
                </mxCell>
                <mxCell id="p5cfNKYse7fmXfm88VF4-61" value="User turn?" style="rhombus;whiteSpace=wrap;html=1;rounded=0;" parent="1" vertex="1">
                    <mxGeometry x="755" y="1520" width="92.5" height="50" as="geometry"/>
                </mxCell>
                <mxCell id="p5cfNKYse7fmXfm88VF4-66" style="edgeStyle=orthogonalEdgeStyle;rounded=0;orthogonalLoop=1;jettySize=auto;html=1;exitX=0.5;exitY=1;exitDx=0;exitDy=0;" parent="1" source="p5cfNKYse7fmXfm88VF4-50" target="p5cfNKYse7fmXfm88VF4-50" edge="1">
                    <mxGeometry relative="1" as="geometry"/>
                </mxCell>
                <mxCell id="p5cfNKYse7fmXfm88VF4-71" style="edgeStyle=orthogonalEdgeStyle;rounded=0;orthogonalLoop=1;jettySize=auto;html=1;exitX=0;exitY=0.5;exitDx=0;exitDy=0;entryX=0.5;entryY=1;entryDx=0;entryDy=0;" parent="1" source="p5cfNKYse7fmXfm88VF4-70" target="p5cfNKYse7fmXfm88VF4-46" edge="1">
                    <mxGeometry relative="1" as="geometry"/>
                </mxCell>
                <mxCell id="p5cfNKYse7fmXfm88VF4-72" value="Modify" style="edgeLabel;html=1;align=center;verticalAlign=middle;resizable=0;points=[];" parent="p5cfNKYse7fmXfm88VF4-71" vertex="1" connectable="0">
                    <mxGeometry x="-0.2077" y="-3" relative="1" as="geometry">
                        <mxPoint as="offset"/>
                    </mxGeometry>
                </mxCell>
                <mxCell id="p5cfNKYse7fmXfm88VF4-77" value="" style="edgeStyle=orthogonalEdgeStyle;rounded=0;orthogonalLoop=1;jettySize=auto;html=1;" parent="1" source="p5cfNKYse7fmXfm88VF4-70" target="p5cfNKYse7fmXfm88VF4-73" edge="1">
                    <mxGeometry relative="1" as="geometry"/>
                </mxCell>
                <mxCell id="p5cfNKYse7fmXfm88VF4-70" value="&lt;div&gt;Change current player&lt;/div&gt;" style="whiteSpace=wrap;html=1;aspect=fixed;rounded=0;strokeColor=#0066CC;" parent="1" vertex="1">
                    <mxGeometry x="450" y="1660" width="90" height="90" as="geometry"/>
                </mxCell>
                <mxCell id="p5cfNKYse7fmXfm88VF4-97" value="" style="edgeStyle=orthogonalEdgeStyle;rounded=0;jumpSize=6;orthogonalLoop=1;jettySize=auto;html=1;strokeColor=#FFFFFF;" parent="1" source="p5cfNKYse7fmXfm88VF4-73" target="p5cfNKYse7fmXfm88VF4-78" edge="1">
                    <mxGeometry relative="1" as="geometry"/>
                </mxCell>
                <mxCell id="p5cfNKYse7fmXfm88VF4-98" value="No" style="edgeLabel;html=1;align=center;verticalAlign=middle;resizable=0;points=[];" parent="p5cfNKYse7fmXfm88VF4-97" vertex="1" connectable="0">
                    <mxGeometry x="0.225" y="5" relative="1" as="geometry">
                        <mxPoint as="offset"/>
                    </mxGeometry>
                </mxCell>
                <mxCell id="p5cfNKYse7fmXfm88VF4-105" style="edgeStyle=orthogonalEdgeStyle;rounded=0;jumpSize=6;orthogonalLoop=1;jettySize=auto;html=1;exitX=1;exitY=0.5;exitDx=0;exitDy=0;entryX=0;entryY=0.5;entryDx=0;entryDy=0;entryPerimeter=0;strokeColor=#FFFFFF;" parent="1" source="p5cfNKYse7fmXfm88VF4-73" target="p5cfNKYse7fmXfm88VF4-102" edge="1">
                    <mxGeometry relative="1" as="geometry"/>
                </mxCell>
                <mxCell id="p5cfNKYse7fmXfm88VF4-111" value="Yes" style="edgeLabel;html=1;align=center;verticalAlign=middle;resizable=0;points=[];" parent="p5cfNKYse7fmXfm88VF4-105" vertex="1" connectable="0">
                    <mxGeometry x="0.3045" relative="1" as="geometry">
                        <mxPoint as="offset"/>
                    </mxGeometry>
                </mxCell>
                <mxCell id="p5cfNKYse7fmXfm88VF4-73" value="Win?" style="rhombus;whiteSpace=wrap;html=1;rounded=0;" parent="1" vertex="1">
                    <mxGeometry x="435" y="1840" width="120" height="70" as="geometry"/>
                </mxCell>
                <mxCell id="p5cfNKYse7fmXfm88VF4-99" style="edgeStyle=orthogonalEdgeStyle;rounded=0;jumpSize=6;orthogonalLoop=1;jettySize=auto;html=1;exitX=0.5;exitY=1;exitDx=0;exitDy=0;entryX=1;entryY=0.5;entryDx=0;entryDy=0;strokeColor=#FFFFFF;" parent="1" source="p5cfNKYse7fmXfm88VF4-78" target="p5cfNKYse7fmXfm88VF4-41" edge="1">
                    <mxGeometry relative="1" as="geometry">
                        <Array as="points">
                            <mxPoint x="495" y="2130"/>
                            <mxPoint x="1070" y="2130"/>
                            <mxPoint x="1070" y="1325"/>
                        </Array>
                    </mxGeometry>
                </mxCell>
                <mxCell id="p5cfNKYse7fmXfm88VF4-101" value="No" style="edgeLabel;html=1;align=center;verticalAlign=middle;resizable=0;points=[];" parent="p5cfNKYse7fmXfm88VF4-99" vertex="1" connectable="0">
                    <mxGeometry x="-0.9608" y="1" relative="1" as="geometry">
                        <mxPoint as="offset"/>
                    </mxGeometry>
                </mxCell>
                <mxCell id="p5cfNKYse7fmXfm88VF4-106" style="edgeStyle=orthogonalEdgeStyle;rounded=0;jumpSize=6;orthogonalLoop=1;jettySize=auto;html=1;exitX=1;exitY=0.5;exitDx=0;exitDy=0;strokeColor=#FFFFFF;" parent="1" source="p5cfNKYse7fmXfm88VF4-78" target="p5cfNKYse7fmXfm88VF4-103" edge="1">
                    <mxGeometry relative="1" as="geometry"/>
                </mxCell>
                <mxCell id="p5cfNKYse7fmXfm88VF4-112" value="Yes" style="edgeLabel;html=1;align=center;verticalAlign=middle;resizable=0;points=[];" parent="p5cfNKYse7fmXfm88VF4-106" vertex="1" connectable="0">
                    <mxGeometry x="0.3202" y="-2" relative="1" as="geometry">
                        <mxPoint as="offset"/>
                    </mxGeometry>
                </mxCell>
                <mxCell id="p5cfNKYse7fmXfm88VF4-78" value="Board full?" style="rhombus;whiteSpace=wrap;html=1;rounded=0;" parent="1" vertex="1">
                    <mxGeometry x="435" y="1990" width="120" height="70" as="geometry"/>
                </mxCell>
                <mxCell id="p5cfNKYse7fmXfm88VF4-94" value="" style="endArrow=classic;html=1;entryX=0;entryY=0.5;entryDx=0;entryDy=0;strokeColor=#FFFFFF;" parent="1" target="p5cfNKYse7fmXfm88VF4-73" edge="1">
                    <mxGeometry width="50" height="50" relative="1" as="geometry">
                        <mxPoint x="190" y="1875" as="sourcePoint"/>
                        <mxPoint x="430" y="1872" as="targetPoint"/>
                        <Array as="points"/>
                    </mxGeometry>
                </mxCell>
                <mxCell id="p5cfNKYse7fmXfm88VF4-95" value="Input" style="edgeLabel;html=1;align=center;verticalAlign=middle;resizable=0;points=[];" parent="p5cfNKYse7fmXfm88VF4-94" vertex="1" connectable="0">
                    <mxGeometry x="-0.2778" y="-4" relative="1" as="geometry">
                        <mxPoint as="offset"/>
                    </mxGeometry>
                </mxCell>
                <mxCell id="p5cfNKYse7fmXfm88VF4-108" value="" style="edgeStyle=orthogonalEdgeStyle;rounded=0;jumpSize=6;orthogonalLoop=1;jettySize=auto;html=1;strokeColor=#FFFFFF;" parent="1" source="p5cfNKYse7fmXfm88VF4-102" target="p5cfNKYse7fmXfm88VF4-104" edge="1">
                    <mxGeometry relative="1" as="geometry"/>
                </mxCell>
                <mxCell id="p5cfNKYse7fmXfm88VF4-102" value="Display winning player" style="shape=display;whiteSpace=wrap;html=1;rounded=0;" parent="1" vertex="1">
                    <mxGeometry x="682.25" y="1837.5" width="144" height="75" as="geometry"/>
                </mxCell>
                <mxCell id="p5cfNKYse7fmXfm88VF4-110" value="" style="edgeStyle=orthogonalEdgeStyle;rounded=0;jumpSize=6;orthogonalLoop=1;jettySize=auto;html=1;strokeColor=#FFFFFF;" parent="1" source="p5cfNKYse7fmXfm88VF4-103" target="p5cfNKYse7fmXfm88VF4-107" edge="1">
                    <mxGeometry relative="1" as="geometry"/>
                </mxCell>
                <mxCell id="p5cfNKYse7fmXfm88VF4-103" value="Display tie" style="shape=display;whiteSpace=wrap;html=1;rounded=0;" parent="1" vertex="1">
                    <mxGeometry x="682.25" y="1987.5" width="144" height="75" as="geometry"/>
                </mxCell>
                <mxCell id="p5cfNKYse7fmXfm88VF4-109" value="" style="edgeStyle=orthogonalEdgeStyle;rounded=0;jumpSize=6;orthogonalLoop=1;jettySize=auto;html=1;strokeColor=#FFFFFF;" parent="1" source="p5cfNKYse7fmXfm88VF4-104" target="p5cfNKYse7fmXfm88VF4-107" edge="1">
                    <mxGeometry relative="1" as="geometry"/>
                </mxCell>
                <mxCell id="p5cfNKYse7fmXfm88VF4-104" value="&lt;div&gt;Increment&lt;/div&gt;&lt;div&gt;Wins&lt;/div&gt;" style="shape=parallelogram;perimeter=parallelogramPerimeter;whiteSpace=wrap;html=1;fixedSize=1;rounded=0;strokeColor=#0066CC;" parent="1" vertex="1">
                    <mxGeometry x="901.25" y="1850" width="110" height="50" as="geometry"/>
                </mxCell>
                <mxCell id="p5cfNKYse7fmXfm88VF4-114" value="" style="edgeStyle=orthogonalEdgeStyle;rounded=0;jumpSize=6;orthogonalLoop=1;jettySize=auto;html=1;strokeColor=#FFFFFF;" parent="1" source="p5cfNKYse7fmXfm88VF4-107" target="p5cfNKYse7fmXfm88VF4-113" edge="1">
                    <mxGeometry relative="1" as="geometry"/>
                </mxCell>
                <mxCell id="p5cfNKYse7fmXfm88VF4-107" value="&lt;div&gt;Increment&lt;/div&gt;&lt;div&gt;Games&lt;/div&gt;&lt;div&gt;Played&lt;br&gt;&lt;/div&gt;" style="shape=parallelogram;perimeter=parallelogramPerimeter;whiteSpace=wrap;html=1;fixedSize=1;rounded=0;strokeColor=#0066CC;" parent="1" vertex="1">
                    <mxGeometry x="901.25" y="2000" width="110" height="50" as="geometry"/>
                </mxCell>
                <mxCell id="p5cfNKYse7fmXfm88VF4-113" value="Break" style="ellipse;whiteSpace=wrap;html=1;rounded=0;strokeColor=#FFFFFF;fillColor=#FF0000;" parent="1" vertex="1">
                    <mxGeometry x="911.75" y="2070" width="89" height="40" as="geometry"/>
                </mxCell>
                <mxCell id="p5cfNKYse7fmXfm88VF4-115" value="Break" style="ellipse;whiteSpace=wrap;html=1;rounded=0;fillColor=#FF0000;" parent="1" vertex="1">
                    <mxGeometry x="702.25" y="970" width="89" height="40" as="geometry"/>
                </mxCell>
                <mxCell id="p5cfNKYse7fmXfm88VF4-122" style="edgeStyle=orthogonalEdgeStyle;rounded=0;jumpSize=6;orthogonalLoop=1;jettySize=auto;html=1;exitX=1;exitY=0.5;exitDx=0;exitDy=0;entryX=0;entryY=0.5;entryDx=0;entryDy=0;strokeColor=#FFFFFF;" parent="1" source="p5cfNKYse7fmXfm88VF4-120" target="p5cfNKYse7fmXfm88VF4-121" edge="1">
                    <mxGeometry relative="1" as="geometry"/>
                </mxCell>
                <mxCell id="p5cfNKYse7fmXfm88VF4-123" value="No" style="edgeLabel;html=1;align=center;verticalAlign=middle;resizable=0;points=[];" parent="p5cfNKYse7fmXfm88VF4-122" vertex="1" connectable="0">
                    <mxGeometry x="-0.8059" relative="1" as="geometry">
                        <mxPoint as="offset"/>
                    </mxGeometry>
                </mxCell>
                <mxCell id="p5cfNKYse7fmXfm88VF4-126" value="" style="edgeStyle=orthogonalEdgeStyle;rounded=0;jumpSize=6;orthogonalLoop=1;jettySize=auto;html=1;strokeColor=#FFFFFF;" parent="1" source="p5cfNKYse7fmXfm88VF4-120" target="p5cfNKYse7fmXfm88VF4-125" edge="1">
                    <mxGeometry relative="1" as="geometry"/>
                </mxCell>
                <mxCell id="p5cfNKYse7fmXfm88VF4-127" value="Yes" style="edgeLabel;html=1;align=center;verticalAlign=middle;resizable=0;points=[];" parent="p5cfNKYse7fmXfm88VF4-126" vertex="1" connectable="0">
                    <mxGeometry x="-0.6571" y="3" relative="1" as="geometry">
                        <mxPoint as="offset"/>
                    </mxGeometry>
                </mxCell>
                <mxCell id="p5cfNKYse7fmXfm88VF4-120" value="Wins &amp;lt; 5?" style="rhombus;whiteSpace=wrap;html=1;rounded=0;" parent="1" vertex="1">
                    <mxGeometry x="537.5" y="2200" width="145" height="90" as="geometry"/>
                </mxCell>
                <mxCell id="p5cfNKYse7fmXfm88VF4-121" value="End" style="ellipse;whiteSpace=wrap;html=1;rounded=0;strokeColor=#FFFFFF;fillColor=#FF0000;" parent="1" vertex="1">
                    <mxGeometry x="880" y="2300" width="160" height="90" as="geometry"/>
                </mxCell>
                <mxCell id="p5cfNKYse7fmXfm88VF4-128" style="edgeStyle=orthogonalEdgeStyle;rounded=0;jumpSize=6;orthogonalLoop=1;jettySize=auto;html=1;exitX=1;exitY=0.5;exitDx=0;exitDy=0;strokeColor=#FFFFFF;" parent="1" source="p5cfNKYse7fmXfm88VF4-125" target="p5cfNKYse7fmXfm88VF4-121" edge="1">
                    <mxGeometry relative="1" as="geometry"/>
                </mxCell>
                <mxCell id="p5cfNKYse7fmXfm88VF4-129" value="No" style="edgeLabel;html=1;align=center;verticalAlign=middle;resizable=0;points=[];" parent="p5cfNKYse7fmXfm88VF4-128" vertex="1" connectable="0">
                    <mxGeometry x="-0.8434" y="-2" relative="1" as="geometry">
                        <mxPoint as="offset"/>
                    </mxGeometry>
                </mxCell>
                <mxCell id="p5cfNKYse7fmXfm88VF4-133" style="edgeStyle=orthogonalEdgeStyle;rounded=0;jumpSize=6;orthogonalLoop=1;jettySize=auto;html=1;exitX=0;exitY=0.5;exitDx=0;exitDy=0;entryX=0;entryY=0.5;entryDx=0;entryDy=0;strokeColor=#F5F5F5;" parent="1" source="p5cfNKYse7fmXfm88VF4-125" target="p5cfNKYse7fmXfm88VF4-35" edge="1">
                    <mxGeometry relative="1" as="geometry">
                        <Array as="points">
                            <mxPoint x="90" y="2425"/>
                            <mxPoint x="90" y="1115"/>
                        </Array>
                    </mxGeometry>
                </mxCell>
                <mxCell id="p5cfNKYse7fmXfm88VF4-134" value="Yes" style="edgeLabel;html=1;align=center;verticalAlign=middle;resizable=0;points=[];" parent="p5cfNKYse7fmXfm88VF4-133" vertex="1" connectable="0">
                    <mxGeometry x="-0.9717" y="-1" relative="1" as="geometry">
                        <mxPoint as="offset"/>
                    </mxGeometry>
                </mxCell>
                <mxCell id="p5cfNKYse7fmXfm88VF4-125" value="Play again?" style="rhombus;whiteSpace=wrap;html=1;rounded=0;" parent="1" vertex="1">
                    <mxGeometry x="537.25" y="2380" width="145" height="90" as="geometry"/>
                </mxCell>
            </root>
        </mxGraphModel>
    </diagram>
</mxfile>